<mxfile host="app.diagrams.net" modified="2024-05-25T16:11:58.780Z" agent="Mozilla/5.0 (Windows NT 10.0; Win64; x64) AppleWebKit/537.36 (KHTML, like Gecko) Chrome/124.0.0.0 Safari/537.36" version="24.4.8" etag="dTglBoN0oUE7vG5dYdHq" type="github">
  <diagram name="페이지-1" id="7y-CqICAZM2da7mgBCST">
    <mxGraphModel>
      <root>
        <mxCell id="0" />
        <mxCell id="1" parent="0" />
      </root>
    </mxGraphModel>
  </diagram>
</mxfile>
